<svg xmlns="http://www.w3.org/2000/svg" width="1026" height="1141" fill="none" viewBox="0 0 1026 1141"><line x1="38" x2="988" y1="155.5" y2="155.5" stroke="#fff"/><line x1="38" x2="988" y1="275.5" y2="275.5" stroke="#fff"/><line x1="38" x2="988" y1="629.5" y2="629.5" stroke="#fff"/><line x1="38" x2="988" y1="749.5" y2="749.5" stroke="#fff"/><line x1="38" x2="988" y1="867.5" y2="867.5" stroke="#fff"/><line x1="38" x2="988" y1="985.5" y2="985.5" stroke="#fff"/><line x1="157.5" x2="157.5" y1="1104" y2="630" stroke="#fff"/><line x1="867.5" x2="867.5" y1="1104" y2="630" stroke="#fff"/><line x1="749.5" x2="749.5" y1="1104" y2="630" stroke="#fff"/><line x1="631.5" x2="631.5" y1="1104" y2="630" stroke="#fff"/><line x1="512.5" x2="512.5" y1="1104" y2="630" stroke="#fff"/><line x1="393.5" x2="393.5" y1="1104" y2="630" stroke="#fff"/><line x1="275.5" x2="275.5" y1="1104" y2="630" stroke="#fff"/><line x1="158" x2="158" y1="512.001" y2="36" stroke="#fff"/><line x1="867.5" x2="867.5" y1="512" y2="38.001" stroke="#fff"/><line x1="749.5" x2="749.5" y1="512" y2="38.001" stroke="#fff"/><line x1="631.5" x2="631.5" y1="513" y2="36.001" stroke="#fff"/><line x1="512.5" x2="512.5" y1="512" y2="36.001" stroke="#fff"/><line x1="393.5" x2="393.5" y1="513" y2="36.001" stroke="#fff"/><line x1="631.646" x2="393.646" y1="274.354" y2="36.354" stroke="#fff"/><line x1="393.896" x2="631.397" y1="274.897" y2="37.397" stroke="#fff"/><line x1="631.149" x2="393.648" y1="1103.86" y2="868.356" stroke="#fff"/><line x1="393.398" x2="631.648" y1="1103.4" y2="867.645" stroke="#fff"/><line x1="275.5" x2="275.5" y1="512" y2="36.001" stroke="#fff"/><line x1="38" x2="988" y1="512.5" y2="512.5" stroke="#fff"/><line x1="38" x2="988" y1="392.5" y2="392.5" stroke="#fff"/><line x1="46.033" x2="46.033" y1="397" y2="415" stroke="#fff" stroke-width="2"/><line x1="45" x2="63" y1="398" y2="398" stroke="#fff" stroke-width="2"/><line x1="45" x2="63" y1="386.967" y2="386.967" stroke="#fff" stroke-width="2"/><line x1="46" x2="46" y1="388" y2="370" stroke="#fff" stroke-width="2"/><line x1="46.033" x2="46.033" y1="754" y2="772" stroke="#fff" stroke-width="2"/><line x1="45" x2="63" y1="755" y2="755" stroke="#fff" stroke-width="2"/><line x1="45" x2="63" y1="743.967" y2="743.967" stroke="#fff" stroke-width="2"/><line x1="46" x2="46" y1="745" y2="727" stroke="#fff" stroke-width="2"/><line x1="980.967" x2="980.967" y1="388" y2="370" stroke="#fff" stroke-width="2"/><line x1="982" x2="964" y1="387" y2="387" stroke="#fff" stroke-width="2"/><line x1="982" x2="964" y1="398.034" y2="398.034" stroke="#fff" stroke-width="2"/><line x1="981" x2="981" y1="397" y2="415" stroke="#fff" stroke-width="2"/><line x1="980.967" x2="980.967" y1="745" y2="727" stroke="#fff" stroke-width="2"/><line x1="982" x2="964" y1="744" y2="744" stroke="#fff" stroke-width="2"/><line x1="982" x2="964" y1="755.034" y2="755.034" stroke="#fff" stroke-width="2"/><line x1="981" x2="981" y1="754" y2="772" stroke="#fff" stroke-width="2"/><line x1="755.033" x2="755.033" y1="754" y2="772" stroke="#fff" stroke-width="2"/><line x1="754" x2="772" y1="755" y2="755" stroke="#fff" stroke-width="2"/><line x1="754" x2="772" y1="743.967" y2="743.967" stroke="#fff" stroke-width="2"/><line x1="755" x2="755" y1="745" y2="727" stroke="#fff" stroke-width="2"/><line x1="743.967" x2="743.967" y1="745" y2="727" stroke="#fff" stroke-width="2"/><line x1="745" x2="727" y1="744" y2="744" stroke="#fff" stroke-width="2"/><line x1="745" x2="727" y1="755.034" y2="755.034" stroke="#fff" stroke-width="2"/><line x1="744" x2="744" y1="754" y2="772" stroke="#fff" stroke-width="2"/><line x1="518.033" x2="518.033" y1="754" y2="772" stroke="#fff" stroke-width="2"/><line x1="517" x2="535" y1="755" y2="755" stroke="#fff" stroke-width="2"/><line x1="517" x2="535" y1="743.967" y2="743.967" stroke="#fff" stroke-width="2"/><line x1="518" x2="518" y1="745" y2="727" stroke="#fff" stroke-width="2"/><line x1="506.967" x2="506.967" y1="745" y2="727" stroke="#fff" stroke-width="2"/><line x1="508" x2="490" y1="744" y2="744" stroke="#fff" stroke-width="2"/><line x1="508" x2="490" y1="755.034" y2="755.034" stroke="#fff" stroke-width="2"/><line x1="507" x2="507" y1="754" y2="772" stroke="#fff" stroke-width="2"/><line x1="281.033" x2="281.033" y1="754" y2="772" stroke="#fff" stroke-width="2"/><line x1="280" x2="298" y1="755" y2="755" stroke="#fff" stroke-width="2"/><line x1="280" x2="298" y1="743.967" y2="743.967" stroke="#fff" stroke-width="2"/><line x1="281" x2="281" y1="745" y2="727" stroke="#fff" stroke-width="2"/><line x1="269.967" x2="269.967" y1="745" y2="727" stroke="#fff" stroke-width="2"/><line x1="271" x2="253" y1="744" y2="744" stroke="#fff" stroke-width="2"/><line x1="271" x2="253" y1="755.034" y2="755.034" stroke="#fff" stroke-width="2"/><line x1="270" x2="270" y1="754" y2="772" stroke="#fff" stroke-width="2"/><line x1="755.033" x2="755.033" y1="397" y2="415" stroke="#fff" stroke-width="2"/><line x1="754" x2="772" y1="398" y2="398" stroke="#fff" stroke-width="2"/><line x1="754" x2="772" y1="386.967" y2="386.967" stroke="#fff" stroke-width="2"/><line x1="755" x2="755" y1="388" y2="370" stroke="#fff" stroke-width="2"/><line x1="743.967" x2="743.967" y1="388" y2="370" stroke="#fff" stroke-width="2"/><line x1="745" x2="727" y1="387" y2="387" stroke="#fff" stroke-width="2"/><line x1="745" x2="727" y1="398.034" y2="398.034" stroke="#fff" stroke-width="2"/><line x1="744" x2="744" y1="397" y2="415" stroke="#fff" stroke-width="2"/><line x1="873.033" x2="873.033" y1="280" y2="298" stroke="#fff" stroke-width="2"/><line x1="872" x2="890" y1="281" y2="281" stroke="#fff" stroke-width="2"/><line x1="872" x2="890" y1="269.967" y2="269.967" stroke="#fff" stroke-width="2"/><line x1="873" x2="873" y1="271" y2="253" stroke="#fff" stroke-width="2"/><line x1="861.967" x2="861.967" y1="271" y2="253" stroke="#fff" stroke-width="2"/><line x1="863" x2="845" y1="270" y2="270" stroke="#fff" stroke-width="2"/><line x1="863" x2="845" y1="281.033" y2="281.033" stroke="#fff" stroke-width="2"/><line x1="862" x2="862" y1="280" y2="298" stroke="#fff" stroke-width="2"/><line x1="164.033" x2="164.033" y1="280" y2="298" stroke="#fff" stroke-width="2"/><line x1="163" x2="181" y1="281" y2="281" stroke="#fff" stroke-width="2"/><line x1="163" x2="181" y1="269.967" y2="269.967" stroke="#fff" stroke-width="2"/><line x1="164" x2="164" y1="271" y2="253" stroke="#fff" stroke-width="2"/><line x1="152.967" x2="152.967" y1="271" y2="253" stroke="#fff" stroke-width="2"/><line x1="154" x2="136" y1="270" y2="270" stroke="#fff" stroke-width="2"/><line x1="154" x2="136" y1="281.033" y2="281.033" stroke="#fff" stroke-width="2"/><line x1="153" x2="153" y1="280" y2="298" stroke="#fff" stroke-width="2"/><line x1="163.033" x2="163.033" y1="872" y2="890" stroke="#fff" stroke-width="2"/><line x1="162" x2="180" y1="873" y2="873" stroke="#fff" stroke-width="2"/><line x1="162" x2="180" y1="861.967" y2="861.967" stroke="#fff" stroke-width="2"/><line x1="163" x2="163" y1="863" y2="845" stroke="#fff" stroke-width="2"/><line x1="151.967" x2="151.967" y1="863" y2="845" stroke="#fff" stroke-width="2"/><line x1="153" x2="135" y1="862" y2="862" stroke="#fff" stroke-width="2"/><line x1="153" x2="135" y1="873.033" y2="873.033" stroke="#fff" stroke-width="2"/><line x1="152" x2="152" y1="872" y2="890" stroke="#fff" stroke-width="2"/><line x1="873.033" x2="873.033" y1="872" y2="890" stroke="#fff" stroke-width="2"/><line x1="872" x2="890" y1="873" y2="873" stroke="#fff" stroke-width="2"/><line x1="872" x2="890" y1="861.967" y2="861.967" stroke="#fff" stroke-width="2"/><line x1="873" x2="873" y1="863" y2="845" stroke="#fff" stroke-width="2"/><line x1="861.967" x2="861.967" y1="863" y2="845" stroke="#fff" stroke-width="2"/><line x1="863" x2="845" y1="862" y2="862" stroke="#fff" stroke-width="2"/><line x1="863" x2="845" y1="873.033" y2="873.033" stroke="#fff" stroke-width="2"/><line x1="862" x2="862" y1="872" y2="890" stroke="#fff" stroke-width="2"/><line x1="518.033" x2="518.033" y1="397" y2="415" stroke="#fff" stroke-width="2"/><line x1="517" x2="535" y1="398" y2="398" stroke="#fff" stroke-width="2"/><line x1="517" x2="535" y1="386.967" y2="386.967" stroke="#fff" stroke-width="2"/><line x1="518" x2="518" y1="388" y2="370" stroke="#fff" stroke-width="2"/><line x1="506.967" x2="506.967" y1="388" y2="370" stroke="#fff" stroke-width="2"/><line x1="508" x2="490" y1="387" y2="387" stroke="#fff" stroke-width="2"/><line x1="508" x2="490" y1="398.034" y2="398.034" stroke="#fff" stroke-width="2"/><line x1="507" x2="507" y1="397" y2="415" stroke="#fff" stroke-width="2"/><line x1="281.033" x2="281.033" y1="397" y2="415" stroke="#fff" stroke-width="2"/><line x1="280" x2="298" y1="398" y2="398" stroke="#fff" stroke-width="2"/><line x1="280" x2="298" y1="386.967" y2="386.967" stroke="#fff" stroke-width="2"/><line x1="281" x2="281" y1="388" y2="370" stroke="#fff" stroke-width="2"/><line x1="269.967" x2="269.967" y1="388" y2="370" stroke="#fff" stroke-width="2"/><line x1="271" x2="253" y1="387" y2="387" stroke="#fff" stroke-width="2"/><line x1="271" x2="253" y1="398.034" y2="398.034" stroke="#fff" stroke-width="2"/><line x1="270" x2="270" y1="397" y2="415" stroke="#fff" stroke-width="2"/><rect width="949" height="1067" x="38.5" y="36.501" stroke="#fff"/></svg>